<svg xmlns="http://www.w3.org/2000/svg" id="Warstwa_1" x="0" y="0" version="1.1" viewBox="0 0 311.28 76.03" xml:space="preserve"><style>.st0,.st1{fill:#fff}.st1{fill-rule:evenodd;clip-rule:evenodd}.st2{fill:#d20a11}</style><path d="M0 59.14h2.04v5.07c.26-.43 1.31-1.55 3.16-1.55 2.79 0 4.64 2.13 4.64 5.15 0 2.99-1.98 5.11-4.77 5.11-1.89 0-2.88-1.18-3.15-1.52v1.27H0V59.14zm4.87 11.98c1.67 0 2.92-1.29 2.92-3.29 0-1.97-1.2-3.35-2.9-3.35-1.63 0-2.92 1.22-2.92 3.35-.01 1.79 1.1 3.29 2.9 3.29zM13.55 76.03l1.39-3.52-3.88-9.6h2.19l2.64 7.11 2.6-7.11h2.13l-5.11 13.12h-1.96z" class="st0"/><g id="XMLID_37_"><path id="XMLID_45_" d="M91.65 59.32c0-.79-.45-1.28-1.28-1.28h-5.54c-2.98 0-4.26 1.27-4.26 4.26v5.96c0 1.18-.53 1.7-1.74 1.7h-7.21c-.77 0-1.28.5-1.28 1.29 0 .76.49 1.27 1.26 1.27h7.22c2.96 0 4.29-1.28 4.29-4.26v-5.95c0-1.27.46-1.7 1.71-1.7h5.54c.84-.01 1.28-.51 1.29-1.29z" class="st1"/><path id="XMLID_44_" d="M47.34 58.04H34.56c-2.55 0-4.26 1.7-4.26 4.26v5.96c0 2.56 1.7 4.26 4.26 4.26h10.22c.85 0 1.7-.85 1.7-1.7v-2.98c0-.74-.55-1.28-1.25-1.28-.79 0-1.3.5-1.3 1.28v2.13h-9.37c-.85 0-1.7-.85-1.7-1.7v-5.96c0-.85.85-1.7 1.7-1.71h12.78c.85 0 1.71.85 1.71 1.7v8.95c0 .67.51 1.28 1.28 1.28.72 0 1.28-.41 1.28-1.28v-8.94c-.01-2.56-1.71-4.26-4.27-4.27z" class="st1"/><path id="XMLID_43_" d="M94.2 68.27c0 2.98 1.25 4.26 4.26 4.26h15.76c.77 0 1.28-.5 1.28-1.28 0-.76-.49-1.27-1.26-1.27H98.47c-1.28-.02-1.71-.46-1.71-1.7v-5.97c0-1.27.46-1.7 1.71-1.7h12.78c1.2 0 1.7.45 1.7 1.7 0 1.28-.45 1.7-1.7 1.7H100.6c-.86 0-1.28.43-1.28 1.28 0 .82.43 1.28 1.28 1.28h10.64c3.02 0 4.26-1.28 4.26-4.26s-1.28-4.26-4.26-4.26H98.46c-3.06 0-4.26 1.28-4.26 4.26v5.96z" class="st1"/><path id="XMLID_42_" d="M118.05 68.27c0 2.98 1.25 4.26 4.26 4.26h14.32c.77 0 1.28-.5 1.28-1.28 0-.76-.44-1.27-1.26-1.27h-14.33c-1.28-.02-1.71-.46-1.71-1.7v-5.96c0-1.24.43-1.68 1.71-1.7h14.3c.77 0 1.28-.49 1.28-1.28 0-.77-.49-1.28-1.26-1.28h-14.32c-3.01 0-4.26 1.28-4.26 4.26v5.95h-.01z" class="st1"/><path id="XMLID_39_" d="M140.73 68.25c0 2.98 1.25 4.28 4.26 4.28h12.78c3.01 0 4.26-1.3 4.26-4.28v-5.96c0-2.98-1.25-4.24-4.26-4.24h-12.78c-3 0-4.26 1.26-4.26 4.24v5.96zm4.25 1.72c-1.28-.02-1.7-.48-1.7-1.72v-5.96c0-1.24.43-1.66 1.7-1.68h12.78c1.28.02 1.71.46 1.71 1.7v5.94c0 1.24-.43 1.71-1.71 1.73l-12.78-.01z" class="st1"/><path id="XMLID_38_" d="M75.46 59.32c0-.79-.45-1.28-1.28-1.28h-5.54c-2.98 0-4.26 1.27-4.26 4.26v5.96c0 1.18-.52 1.7-1.74 1.7h-7.26c-.77 0-1.23.5-1.23 1.29 0 .76.46 1.27 1.23 1.27h7.26c2.96 0 4.29-1.28 4.29-4.26v-5.95c0-1.27.46-1.7 1.7-1.7h5.54c.84-.01 1.28-.51 1.29-1.29z" class="st1"/></g><g><path d="M28.33 11.11L20.2 36.89h-8.27L.48.9h8.13l7.86 27.57s.07-.14 8.27-27.57h7.17c8.13 27.43 8.2 27.57 8.2 27.57L48.04.9h8.13L44.73 36.88h-8.34l-8.06-25.77zM70.99 13.93c4.14 0 7.24 1.38 8.62 2.62v-3.38c0-4.14-2.9-6.62-7.65-6.62-4 0-7.44 1.38-10.06 2.83l-2.89-5.24C61.9 2.28 66.73 0 72.73 0c10.68 0 14.34 5.79 14.34 13.65v23.23h-6.55l-.62-2.69c-1.86 2.07-4.76 3.58-9.24 3.58-7.58 0-13.58-4.76-13.58-11.99-.02-6.96 5.64-11.85 13.91-11.85zm1.24 17.85c4.41 0 7.58-2.48 7.58-6.2 0-3.79-3.1-6.2-7.65-6.2s-7.58 2.62-7.58 6.2 3.1 6.2 7.65 6.2zM94.05.9h7.1v4.76c.96-1.31 4.62-5.65 11.58-5.65 10.27 0 17.58 7.86 17.58 18.82 0 11.17-6.82 18.95-17.09 18.95-6.82 0-10.68-4.14-11.65-5.65v17.64h-7.51V.9h-.01zm17.99 30.19c6.27 0 10.68-5.03 10.68-12.27 0-7.38-4.62-12.13-10.75-12.13-6.62 0-10.68 5.51-10.68 12.13 0 7.79 4.76 12.27 10.75 12.27zM153.22 7.59c-7.86 0-10.13 6-10.13 13.78v15.51h-7.51V.9h7.37v5.65C144.33 2.97 148.12 0 153.22 0v7.59zM173.35.01c11.1 0 19.09 8.06 19.09 18.89 0 10.82-8.13 18.89-19.09 18.89-11.03 0-19.02-7.93-19.02-18.82 0-10.9 8.2-18.96 19.02-18.96zm0 31.08c6.69 0 11.58-5.17 11.58-12.2s-4.89-12.2-11.58-12.2c-6.75 0-11.44 5.24-11.44 12.27 0 7.1 4.76 12.13 11.44 12.13z" class="st0"/><path d="M231.32.01c10.89 0 17.3 7.51 17.3 18.82 0 .62 0 1.24-.07 1.86h-27.09c.14 6.41 4.76 10.55 11.17 10.55 5.45 0 8.55-3.03 9.93-5.03l4.96 3.72c-1.72 2.96-6.48 7.86-15.03 7.86-11.23 0-18.68-7.86-18.68-18.75 0-11.17 7.65-19.03 17.51-19.03zm9.65 15.51c-.28-5.93-4.41-9.24-9.58-9.24s-9.17 3.58-9.65 9.24h19.23zM271.4 7.59c-7.86 0-10.13 6-10.13 13.78v15.51h-7.51V.9h7.37v5.65C262.51 2.97 266.3 0 271.4 0v7.59zM275.02.9h7.1v4.76c.96-1.31 4.62-5.65 11.58-5.65 10.27 0 17.58 7.86 17.58 18.82 0 11.17-6.82 18.95-17.09 18.95-6.82 0-10.68-4.14-11.65-5.65v17.64h-7.51V.9h-.01zm17.99 30.19c6.27 0 10.68-5.03 10.68-12.27 0-7.38-4.62-12.13-10.75-12.13-6.62 0-10.68 5.51-10.68 12.13 0 7.79 4.75 12.27 10.75 12.27z" class="st2"/></g></svg>